<svg width="24" height="29" fill="#268cde" fill-rule="evenodd" xmlns="http://www.w3.org/2000/svg"><path d="M5.667 12.333C5.667 8.836 8.502 6 12 6s6.333 2.836 6.333 6.333-2.836 6.333-6.333 6.333-6.333-2.835-6.333-6.333zM12 8c-2.393 0-4.333 1.94-4.333 4.333s1.94 4.333 4.333 4.333 4.333-1.94 4.333-4.333S14.393 8 12 8zM.699 10.809A11.05 11.05 0 0 1 11.712.667h.576A11.05 11.05 0 0 1 23.301 10.81c.254 3.079-.697 6.136-2.653 8.528l-6.391 7.816a2.92 2.92 0 0 1-4.515 0l-6.391-7.816a11.93 11.93 0 0 1-2.652-8.529zm11.013-8.143a9.05 9.05 0 0 0-9.02 8.307c-.211 2.562.58 5.107 2.208 7.097l6.391 7.816c.367.448 1.052.448 1.418 0L19.1 18.07c1.628-1.99 2.419-4.535 2.208-7.097a9.05 9.05 0 0 0-9.02-8.307h-.576z"/></svg>
