<svg width="25" height="24" fill="none" xmlns="http://www.w3.org/2000/svg"><path fill-rule="evenodd" clip-rule="evenodd" d="M3.787 9.142a22.956 22.956 0 0 0 11.895 11.55l.017.007 1.019.454a3 3 0 0 0 3.652-.983l1.7-2.352a.333.333 0 0 0-.062-.455l-2.966-2.393a.334.334 0 0 0-.477.061L17.41 16.59a1 1 0 0 1-1.215.316A17.85 17.85 0 0 1 7.3 8.01a1 1 0 0 1 .316-1.215L9.175 5.64a.333.333 0 0 0 .06-.477L6.843 2.197a.333.333 0 0 0-.454-.06L4.024 3.842a3 3 0 0 0-.976 3.674l.738 1.623.001.002ZM14.893 22.53A24.955 24.955 0 0 1 1.97 9.974l-.002-.003-.74-1.626a5 5 0 0 1 1.626-6.123L5.217.515A2.333 2.333 0 0 1 8.4.94l2.393 2.967a2.333 2.333 0 0 1-.426 3.34l-.893.662a15.856 15.856 0 0 0 6.824 6.823l.661-.893a2.333 2.333 0 0 1 3.34-.426l2.966 2.393a2.334 2.334 0 0 1 .426 3.182l-1.699 2.352a5 5 0 0 1-6.087 1.639l-1.01-.45Z" fill="#268CDE"/></svg>