<svg width="44" height="36" fill="none" xmlns="http://www.w3.org/2000/svg"><path d="M26.667 11a3.5 3.5 0 1 1 7 0 3.5 3.5 0 0 1-7 0Z" fill="url(#Vector__a)"/><path fill-rule="evenodd" clip-rule="evenodd" d="M10.958.87a127.509 127.509 0 0 1 22.084 0l3.524.306a7.322 7.322 0 0 1 6.607 6.206 71.409 71.409 0 0 1 0 21.236 7.323 7.323 0 0 1-6.607 6.206l-3.524.306c-7.347.639-14.737.639-22.084 0l-3.524-.306a7.322 7.322 0 0 1-6.607-6.206 71.402 71.402 0 0 1 0-21.236 7.322 7.322 0 0 1 6.607-6.206L10.958.87Zm21.781 3.487a124.006 124.006 0 0 0-21.478 0l-3.524.306a3.822 3.822 0 0 0-3.449 3.24 67.902 67.902 0 0 0-.726 12.06l9.034-9.034a1.75 1.75 0 0 1 2.545.075l8.567 9.638 5.905-1.969a1.75 1.75 0 0 1 1.855.49l8.21 9.123a3.84 3.84 0 0 0 .034-.189 67.903 67.903 0 0 0 0-20.194 3.822 3.822 0 0 0-3.449-3.24l-3.524-.306Zm4.708 26.682-7.814-8.683-5.913 1.97a1.75 1.75 0 0 1-1.861-.497l-8.1-9.113-9.903 9.903c.114 1.162.258 2.322.432 3.478a3.822 3.822 0 0 0 3.449 3.24l3.524.306a124.04 124.04 0 0 0 21.478 0l3.524-.306c.417-.036.816-.14 1.184-.298Z" fill="url(#Vector__b)"/><defs><linearGradient id="Vector__a" x1="19.788" y1=".391" x2="19.788" y2="35.609" gradientUnits="userSpaceOnUse"><stop offset="0" stop-color="#ED0189"/><stop offset="1" stop-color="#F3293B"/></linearGradient><linearGradient id="Vector__b" x1="19.788" y1=".391" x2="19.788" y2="35.609" gradientUnits="userSpaceOnUse"><stop offset="0" stop-color="#ED0189"/><stop offset="1" stop-color="#F3293B"/></linearGradient></defs></svg>