<svg width="42" height="46" fill="none" xmlns="http://www.w3.org/2000/svg"><path fill-rule="evenodd" clip-rule="evenodd" d="M19.13 1.037a3.85 3.85 0 0 1 3.74 0l16.8 9.333a3.85 3.85 0 0 1 1.98 3.366v18.528a3.85 3.85 0 0 1-1.98 3.366l-16.8 9.333a3.85 3.85 0 0 1-3.74 0L2.33 35.63a3.85 3.85 0 0 1-1.98-3.366V13.736a3.85 3.85 0 0 1 1.98-3.366l16.8-9.333Zm2.04 3.06a.35.35 0 0 0-.34 0L4.03 13.43a.35.35 0 0 0-.18.306v18.528a.35.35 0 0 0 .18.306l16.8 9.334a.35.35 0 0 0 .34 0l16.8-9.334a.35.35 0 0 0 .18-.306V13.736a.35.35 0 0 0-.18-.306l-16.8-9.334Z" fill="url(#Vector__a)"/><path fill-rule="evenodd" clip-rule="evenodd" d="M9.917 23c0-6.121 4.962-11.083 11.083-11.083S32.083 16.879 32.083 23 27.121 34.083 21 34.083 9.917 29.121 9.917 23ZM21 15.417a7.583 7.583 0 1 0 0 15.166 7.583 7.583 0 0 0 0-15.166Z" fill="url(#Vector__b)"/><defs><linearGradient id="Vector__a" x1="18.921" y1=".552" x2="18.921" y2="45.448" gradientUnits="userSpaceOnUse"><stop offset="0" stop-color="#ED0189"/><stop offset="1" stop-color="#F3293B"/></linearGradient><linearGradient id="Vector__b" x1="18.921" y1=".552" x2="18.921" y2="45.448" gradientUnits="userSpaceOnUse"><stop offset="0" stop-color="#ED0189"/><stop offset="1" stop-color="#F3293B"/></linearGradient></defs></svg>